<svg width="21" height="21" viewBox="0 0 21 21" fill="none" xmlns="http://www.w3.org/2000/svg">
<path d="M14.4375 1.78577H6.10417C3.80298 1.78577 1.9375 3.65125 1.9375 5.95243V14.2858C1.9375 16.587 3.80298 18.4524 6.10417 18.4524H14.4375C16.7387 18.4524 18.6042 16.587 18.6042 14.2858V5.95243C18.6042 3.65125 16.7387 1.78577 14.4375 1.78577Z" stroke="#4C4C4C" stroke-width="1.66667" stroke-linecap="round" stroke-linejoin="round"/>
<path d="M13.6042 9.59415C13.7071 10.2877 13.5886 10.996 13.2657 11.6183C12.9428 12.2407 12.4319 12.7453 11.8056 13.0605C11.1793 13.3758 10.4696 13.4855 9.7774 13.3741C9.08519 13.2627 8.44572 12.9359 7.94995 12.4401C7.45418 11.9443 7.12736 11.3049 7.01597 10.6127C6.90458 9.92044 7.0143 9.21073 7.32952 8.58446C7.64474 7.95819 8.1494 7.44726 8.77174 7.12435C9.39407 6.80143 10.1024 6.68297 10.7959 6.78581C11.5034 6.89072 12.1583 7.22037 12.664 7.72607C13.1697 8.23177 13.4993 8.88671 13.6042 9.59415Z" stroke="#4C4C4C" stroke-width="1.66667" stroke-linecap="round" stroke-linejoin="round"/>
<path d="M14.8535 5.53577H14.8618" stroke="#4C4C4C" stroke-width="1.66667" stroke-linecap="round" stroke-linejoin="round"/>
</svg>
